<svg width="22" height="23" viewBox="0 0 22 23" fill="none" xmlns="http://www.w3.org/2000/svg">
<g clip-path="url(#clip0_2_18)">
<path d="M14.7778 20.3333V16.8933C14.8111 16.4695 14.7538 16.0434 14.6098 15.6434C14.4657 15.2434 14.2381 14.8786 13.9422 14.5733C16.7333 14.2622 19.6666 13.2044 19.6666 8.35111C19.6664 7.11007 19.189 5.91662 18.3333 5.01778C18.7385 3.93201 18.7099 2.73187 18.2533 1.66667C18.2533 1.66667 17.2044 1.35556 14.7778 2.98222C12.7404 2.43007 10.5929 2.43007 8.55553 2.98222C6.12887 1.35556 5.07998 1.66667 5.07998 1.66667C4.62342 2.73187 4.59477 3.93201 4.99998 5.01778C4.13787 5.92329 3.66 7.12753 3.66665 8.37778C3.66665 13.1956 6.59998 14.2533 9.39109 14.6C9.09864 14.9022 8.8731 15.2626 8.72914 15.6577C8.58518 16.0528 8.52603 16.4738 8.55553 16.8933V20.3333M8.55553 17.6667C4.11109 19 4.11109 15.4444 2.33331 15L8.55553 17.6667Z" stroke="#B1C2EF" stroke-width="2" stroke-linecap="round" stroke-linejoin="round"/>
</g>
<defs>
<clipPath id="clip0_2_18">
<rect width="21.3333" height="21.3333" fill="white" transform="translate(0.555542 0.777771)"/>
</clipPath>
</defs>
</svg>
