<svg width="22" height="22" viewBox="0 0 22 22" fill="none" xmlns="http://www.w3.org/2000/svg">
<path d="M14.2222 7.11111C15.6367 7.11111 16.9933 7.67302 17.9935 8.67321C18.9937 9.67341 19.5556 11.03 19.5556 12.4444V18.6667H16V12.4444C16 11.973 15.8127 11.5208 15.4793 11.1874C15.1459 10.854 14.6937 10.6667 14.2222 10.6667C13.7508 10.6667 13.2986 10.854 12.9652 11.1874C12.6318 11.5208 12.4445 11.973 12.4445 12.4444V18.6667H8.88892V12.4444C8.88892 11.03 9.45082 9.67341 10.451 8.67321C11.4512 7.67302 12.8078 7.11111 14.2222 7.11111V7.11111Z" stroke="#B1C2EF" stroke-width="2" stroke-linecap="round" stroke-linejoin="round"/>
<path d="M5.33333 8H1.77777V18.6667H5.33333V8Z" stroke="#B1C2EF" stroke-width="2" stroke-linecap="round" stroke-linejoin="round"/>
<path d="M3.55555 5.33333C4.53739 5.33333 5.33333 4.53739 5.33333 3.55555C5.33333 2.57371 4.53739 1.77777 3.55555 1.77777C2.57371 1.77777 1.77777 2.57371 1.77777 3.55555C1.77777 4.53739 2.57371 5.33333 3.55555 5.33333Z" stroke="#B1C2EF" stroke-width="2" stroke-linecap="round" stroke-linejoin="round"/>
</svg>
