<svg width="168" height="61" viewBox="0 0 168 61" fill="none" xmlns="http://www.w3.org/2000/svg">
<rect width="168" height="61" fill="#0E77AB"/>
<path d="M66.168 35V23.984H67.56V33.76H72.584L72.424 35H66.168ZM82.4497 29.504C82.4497 30.6133 82.2978 31.5973 81.9938 32.456C81.6951 33.3093 81.2444 33.9787 80.6418 34.464C80.0391 34.944 79.2898 35.184 78.3938 35.184C77.5031 35.184 76.7538 34.9493 76.1458 34.48C75.5431 34.0053 75.0898 33.344 74.7858 32.496C74.4871 31.648 74.3378 30.656 74.3378 29.52C74.3378 28.4053 74.4871 27.4187 74.7858 26.56C75.0898 25.7013 75.5431 25.0293 76.1458 24.544C76.7538 24.0533 77.5031 23.808 78.3938 23.808C79.2898 23.808 80.0391 24.0453 80.6418 24.52C81.2444 24.9947 81.6951 25.6587 81.9938 26.512C82.2978 27.3653 82.4497 28.3627 82.4497 29.504ZM80.9938 29.504C80.9938 28.0373 80.7911 26.9147 80.3858 26.136C79.9858 25.3573 79.3218 24.968 78.3938 24.968C77.4658 24.968 76.7991 25.36 76.3938 26.144C75.9938 26.928 75.7938 28.0533 75.7938 29.52C75.7938 30.9867 76.0018 32.104 76.4178 32.872C76.8338 33.6347 77.4924 34.016 78.3938 34.016C79.3218 34.016 79.9858 33.632 80.3858 32.864C80.7911 32.0907 80.9938 30.9707 80.9938 29.504ZM88.2035 35.184C87.3342 35.184 86.5768 34.9733 85.9315 34.552C85.2915 34.1307 84.7955 33.4987 84.4435 32.656C84.0915 31.8133 83.9155 30.7573 83.9155 29.488C83.9155 28.5387 84.0408 27.7093 84.2915 27C84.5475 26.2907 84.8915 25.6987 85.3235 25.224C85.7608 24.7493 86.2542 24.3947 86.8035 24.16C87.3582 23.9253 87.9315 23.808 88.5235 23.808C89.2435 23.808 89.8408 23.912 90.3155 24.12C90.7902 24.3227 91.2435 24.6213 91.6755 25.016L90.8355 25.888C90.4995 25.5733 90.1448 25.3413 89.7715 25.192C89.4035 25.0427 88.9902 24.968 88.5315 24.968C88.1315 24.968 87.7448 25.0453 87.3715 25.2C86.9982 25.3547 86.6622 25.608 86.3635 25.96C86.0702 26.3067 85.8355 26.768 85.6595 27.344C85.4888 27.92 85.4035 28.6347 85.4035 29.488C85.4035 30.5493 85.5128 31.4133 85.7315 32.08C85.9555 32.7467 86.2835 33.2373 86.7155 33.552C87.1528 33.8613 87.6915 34.016 88.3315 34.016C88.7155 34.016 89.0782 33.9707 89.4195 33.88C89.7662 33.7893 90.1022 33.6587 90.4275 33.488V30.128H88.2595L88.0915 28.976H91.8035V34.224C91.3075 34.4907 90.7795 34.7173 90.2195 34.904C89.6595 35.0907 88.9875 35.184 88.2035 35.184ZM101.637 29.504C101.637 30.6133 101.485 31.5973 101.181 32.456C100.883 33.3093 100.432 33.9787 99.8293 34.464C99.2266 34.944 98.4773 35.184 97.5813 35.184C96.6906 35.184 95.9413 34.9493 95.3333 34.48C94.7306 34.0053 94.2773 33.344 93.9733 32.496C93.6746 31.648 93.5253 30.656 93.5253 29.52C93.5253 28.4053 93.6746 27.4187 93.9733 26.56C94.2773 25.7013 94.7306 25.0293 95.3333 24.544C95.9413 24.0533 96.6906 23.808 97.5813 23.808C98.4773 23.808 99.2266 24.0453 99.8293 24.52C100.432 24.9947 100.883 25.6587 101.181 26.512C101.485 27.3653 101.637 28.3627 101.637 29.504ZM100.181 29.504C100.181 28.0373 99.9786 26.9147 99.5733 26.136C99.1733 25.3573 98.5093 24.968 97.5813 24.968C96.6533 24.968 95.9866 25.36 95.5813 26.144C95.1813 26.928 94.9813 28.0533 94.9813 29.52C94.9813 30.9867 95.1893 32.104 95.6053 32.872C96.0213 33.6347 96.6799 34.016 97.5813 34.016C98.5093 34.016 99.1733 33.632 99.5733 32.864C99.9786 32.0907 100.181 30.9707 100.181 29.504Z" fill="white"/>
</svg>
